<svg width="1712" height="386" viewBox="0 0 1712 386" fill="none" xmlns="http://www.w3.org/2000/svg">
<path d="M141.598 244.12L0 385.707H42.972L174.577 254.114L141.598 244.12Z" fill="#C18948"/>
<path d="M215.175 222.12L73.577 363.707H116.549L248.154 232.114L215.175 222.12Z" fill="#A4753D"/>
<path d="M280.752 208.12L139.154 349.707H182.126L313.731 218.114L280.752 208.12Z" fill="#916736"/>
<path d="M511.324 93.078C509.989 89.928 506.897 87.881 503.476 87.881H459.55C454.841 87.881 451.026 91.697 451.026 96.405L463.545 137.663C465.2 139.265 467.338 140.062 469.472 140.062C471.701 140.062 473.926 139.194 475.598 137.466L509.604 102.333C511.981 99.873 512.659 96.229 511.324 93.078Z" fill="#777777"/>
<path d="M321.452 302.844C229.766 302.844 191.572 238.839 193.06 192.682C193.049 192.671 385.415 0.292999 385.415 0.292999C423.193 21.182 452.651 55.3 467.505 96.408C471.574 107.637 474.54 119.388 476.29 131.538C477.517 139.994 478.154 148.631 478.154 157.416C478.154 160.166 478.097 162.917 477.961 165.633C477.961 165.633 425.246 302.844 321.452 302.844Z" fill="#C18948"/>
<path d="M337.508 250C256.477 250 222.722 197.854 224.037 160.249C224.027 160.24 384.724 0 384.724 0C418.112 17.0186 453.461 48.3221 466.589 81.8134C470.185 90.9618 472.806 100.536 474.353 110.434C475.437 117.324 476 124.36 476 131.518C476 133.758 475.95 135.999 475.829 138.212C475.829 138.212 429.24 250 337.508 250Z" fill="#A5743C"/>
<path d="M409.805 165.633H477.962C473.677 260.918 395.065 336.849 298.722 336.849C242.18 336.849 191.753 310.686 158.874 269.817C152.396 261.793 146.622 253.201 141.599 244.12L193.049 192.67C207.824 236.88 249.557 268.748 298.722 268.748C357.457 268.749 405.577 223.288 409.805 165.633Z" fill="#855E32"/>
<path d="M393.325 134.174C372.501 134.174 355.559 117.232 355.559 96.408C355.559 75.577 372.501 58.63 393.325 58.63C414.156 58.63 431.103 75.577 431.103 96.408C431.103 117.232 414.156 134.174 393.325 134.174Z" fill="#616161"/>
<path d="M393.325 81.36C401.633 81.36 408.372 88.1 408.372 96.407C408.372 104.714 401.632 111.443 393.325 111.443C385.018 111.443 378.289 104.715 378.289 96.407C378.289 88.099 385.017 81.36 393.325 81.36Z" fill="black"/>
<path d="M601.448 247.688C598.376 247.688 596.84 246.152 596.84 243.08V181.16C596.84 178.088 598.376 176.552 601.448 176.552H623.912C626.408 176.552 630.056 175.88 634.856 174.536C639.848 173.192 644.84 170.6 649.832 166.76C661.544 157.16 667.4 142.952 667.4 124.136C667.4 117.416 666.44 111.176 664.52 105.416C662.6 99.656 659.816 94.76 656.168 90.728C652.52 86.504 647.912 83.24 642.344 80.936C636.968 78.44 630.824 77.192 623.912 77.192H601.16C599.816 77.192 598.664 76.712 597.704 75.752C596.744 74.792 596.264 73.64 596.264 72.296C596.264 70.952 596.744 69.896 597.704 69.128C598.664 68.168 599.816 67.688 601.16 67.688H623.912C632.36 67.688 639.848 69.128 646.376 72.008C653.096 74.888 658.664 78.92 663.08 84.104C667.688 89.096 671.144 95.048 673.448 101.96C675.752 108.872 676.904 116.264 676.904 124.136C676.904 133.544 675.272 142.76 672.008 151.784C668.744 160.616 663.272 168.008 655.592 173.96C650.024 178.376 644.264 181.544 638.312 183.464C632.552 185.192 627.752 186.056 623.912 186.056H606.344V243.08C606.344 244.424 605.864 245.576 604.904 246.536C603.944 247.304 602.792 247.688 601.448 247.688ZM570.92 97.928C570.92 96.584 571.304 95.432 572.072 94.472C573.032 93.512 574.28 93.032 575.816 93.032H613.256C618.44 93.032 623.336 93.704 627.944 95.048C632.744 96.2 636.872 98.12 640.328 100.808C643.784 103.496 646.568 106.952 648.68 111.176C650.792 115.4 651.848 120.392 651.848 126.152C651.848 131.912 650.792 136.904 648.68 141.128C646.76 145.352 643.976 149 640.328 152.072C636.872 154.952 632.744 157.16 627.944 158.696C623.336 160.04 618.44 160.712 613.256 160.712H601.448C598.376 160.712 596.84 159.176 596.84 156.104V135.944C596.84 132.872 598.376 131.336 601.448 131.336C602.792 131.336 603.944 131.816 604.904 132.776C605.864 133.544 606.344 134.6 606.344 135.944V151.208H613.256C621.128 151.208 627.944 149.192 633.704 145.16C639.464 141.128 642.344 134.792 642.344 126.152C642.344 121.736 641.48 118.088 639.752 115.208C638.216 112.136 636.104 109.64 633.416 107.72C630.92 105.8 627.848 104.456 624.2 103.688C620.744 102.92 617.096 102.536 613.256 102.536H580.424V264.968C580.424 266.312 579.944 267.464 578.984 268.424C578.216 269.384 577.16 269.864 575.816 269.864C574.28 269.864 573.032 269.384 572.072 268.424C571.304 267.464 570.92 266.312 570.92 264.968V97.928ZM600.008 124.712C598.472 124.328 597.416 123.56 596.84 122.408C596.264 121.064 596.168 119.72 596.552 118.376V118.088C597.512 115.784 599.24 114.632 601.736 114.632C602.312 114.632 602.792 114.728 603.176 114.92C604.712 115.304 605.768 116.168 606.344 117.512C606.92 118.664 607.016 120.008 606.632 121.544H606.344C605.768 123.848 604.136 125 601.448 125L600.008 124.712ZM708.175 268.712C704.335 267.56 702.895 265.448 703.855 262.376L774.703 72.008C775.663 69.896 777.199 68.84 779.311 68.84H783.343C785.455 68.84 786.991 69.896 787.951 72.008L822.223 176.552C822.607 177.896 822.511 179.144 821.935 180.296C821.359 181.448 820.399 182.216 819.055 182.6C818.671 182.6 818.383 182.696 818.191 182.888C818.191 182.888 817.999 182.888 817.615 182.888C815.503 182.888 813.967 181.736 813.007 179.432L781.039 82.088L712.783 265.832C711.823 267.752 710.287 268.712 708.175 268.712ZM871.183 268.712C869.071 268.712 867.535 267.752 866.575 265.832L843.535 203.048H779.599C778.063 203.048 776.815 202.568 775.855 201.608C775.087 200.648 774.703 199.496 774.703 198.152C774.703 195.08 776.335 193.544 779.599 193.544H846.991C848.911 193.544 850.351 194.408 851.311 196.136L875.503 262.376C876.463 265.448 875.503 267.464 872.623 268.424L871.183 268.712ZM740.431 253.448C736.591 252.296 735.151 250.184 736.111 247.112L776.143 129.032C777.295 126.92 778.831 125.864 780.751 125.864C781.135 125.864 781.423 125.96 781.615 126.152C781.807 126.152 781.999 126.152 782.191 126.152C783.535 126.536 784.495 127.4 785.071 128.744C785.647 129.896 785.743 131.048 785.359 132.2L745.039 250.28C744.079 252.392 742.543 253.448 740.431 253.448ZM840.367 253.16C838.063 253.16 836.623 252.104 836.047 249.992L828.847 228.392H771.535C770.191 228.392 769.039 227.912 768.078 226.952C767.311 225.992 766.927 224.84 766.927 223.496C766.927 220.424 768.463 218.888 771.535 218.888H832.303C834.415 218.888 835.951 219.944 836.911 222.056L844.975 247.112C845.359 248.264 845.263 249.416 844.687 250.568C844.111 251.72 843.151 252.488 841.807 252.872L840.367 253.16ZM839.502 182.6C837.391 182.6 835.855 181.544 834.895 179.432L806.095 91.016C805.135 87.944 806.095 85.928 808.975 84.968C809.359 84.776 809.839 84.68 810.415 84.68C812.719 84.68 814.255 85.736 815.023 87.848L844.111 176.264C844.495 177.608 844.399 178.856 843.823 180.008C843.247 181.16 842.287 181.928 840.943 182.312L839.502 182.6ZM735.247 269.288C733.135 268.712 731.695 267.848 730.927 266.696C730.159 265.352 729.967 263.912 730.351 262.376C731.311 259.88 732.943 258.632 735.247 258.632C735.631 258.632 735.919 258.728 736.111 258.92C736.303 258.92 736.591 258.92 736.975 258.92C738.319 259.496 739.279 260.456 739.855 261.8C740.431 262.952 740.527 264.2 740.143 265.544V265.832C739.183 268.136 737.551 269.288 735.247 269.288ZM948.538 208.808C951.61 208.808 953.146 210.344 953.146 213.416V263.528C953.146 266.792 951.61 268.424 948.538 268.424C947.194 268.424 946.042 268.04 945.082 267.272C944.122 266.312 943.642 265.064 943.642 263.528V213.416C943.642 212.072 944.122 211.016 945.082 210.248C946.042 209.288 947.194 208.808 948.538 208.808ZM1007 247.4C1007.77 248.36 1007.96 249.512 1007.58 250.856C1007.39 252.2 1006.81 253.256 1005.85 254.024C1005.08 254.6 1004.12 254.888 1002.97 254.888C1001.43 254.888 1000.19 254.12 999.226 252.584L943.354 169.64C941.626 166.952 942.106 164.744 944.794 163.016C945.37 162.44 946.234 162.152 947.386 162.152C948.73 162.152 950.074 162.824 951.418 164.168L1007 247.4ZM927.802 100.52V263.528C927.802 266.792 926.266 268.424 923.194 268.424C919.93 268.424 918.298 266.792 918.298 263.528V95.912C918.298 94.568 918.682 93.416 919.45 92.456C920.41 91.496 921.658 91.016 923.194 91.016H980.506C987.418 91.016 993.754 91.688 999.514 93.032C1005.47 94.184 1010.46 96.296 1014.49 99.368C1018.71 102.44 1021.98 106.568 1024.28 111.752C1026.59 116.744 1027.74 123.08 1027.74 130.76C1027.74 157.832 1012.57 171.368 982.234 171.368H973.306C971.962 171.368 970.81 170.888 969.85 169.928C968.89 168.968 968.41 167.816 968.41 166.472C968.41 165.128 968.89 164.072 969.85 163.304C970.81 162.344 971.962 161.864 973.306 161.864H982.234C993.37 161.864 1002.11 159.656 1008.44 155.24C1014.97 150.824 1018.23 142.664 1018.23 130.76C1018.23 124.616 1017.27 119.624 1015.35 115.784C1013.63 111.752 1011.13 108.68 1007.87 106.568C1004.6 104.264 1000.57 102.728 995.77 101.96C991.162 101 986.074 100.52 980.506 100.52H927.802ZM998.074 192.68L1044.73 260.936C1046.46 263.624 1046.07 265.832 1043.58 267.56C1042.81 268.136 1041.95 268.424 1040.99 268.424C1039.26 268.424 1037.91 267.752 1036.95 266.408L985.69 190.952C984.538 189.608 984.442 187.976 985.402 186.056C986.362 184.328 987.802 183.464 989.722 183.464C997.786 183.464 1005.18 182.216 1011.9 179.72C1018.62 177.224 1024.38 173.672 1029.18 169.064C1033.98 164.456 1037.63 158.888 1040.12 152.36C1042.81 145.832 1044.15 138.44 1044.15 130.184C1044.15 111.752 1039.55 98.504 1030.33 90.44C1021.11 82.184 1007.58 78.056 989.722 78.056H948.826C945.754 78.056 944.218 76.424 944.218 73.16C944.218 70.088 945.754 68.552 948.826 68.552H989.722C1010.07 68.552 1025.82 73.544 1036.95 83.528C1048.09 93.32 1053.66 108.872 1053.66 130.184C1053.66 147.848 1048.67 162.152 1038.68 173.096C1028.89 183.848 1015.35 190.376 998.074 192.68ZM1013.63 258.344C1015.16 258.728 1016.22 259.592 1016.79 260.936C1017.37 262.088 1017.47 263.432 1017.08 264.968H1016.79C1016.22 267.272 1014.59 268.424 1011.9 268.424C1009.79 267.848 1008.35 266.984 1007.58 265.832C1006.81 264.488 1006.62 263.144 1007 261.8V261.512C1007.96 259.208 1009.59 258.056 1011.9 258.056C1012.67 258.056 1013.24 258.152 1013.63 258.344ZM1139.37 77.768C1138.03 77.768 1136.88 77.384 1135.92 76.616C1134.96 75.656 1134.48 74.504 1134.48 73.16C1134.48 71.816 1134.96 70.664 1135.92 69.704C1136.88 68.744 1138.03 68.264 1139.37 68.264H1170.48C1178.73 68.264 1186.7 69.608 1194.38 72.296C1202.06 74.984 1209.17 78.632 1215.69 83.24C1222.22 87.848 1228.08 93.416 1233.26 99.944C1238.45 106.28 1242.57 113.192 1245.65 120.68C1251.79 135.08 1254.86 151.4 1254.86 169.64C1254.86 183.08 1253.13 195.848 1249.68 207.944C1246.22 219.848 1240.94 230.312 1233.84 239.336C1226.93 248.168 1218.19 255.272 1207.63 260.648C1197.07 265.832 1184.69 268.424 1170.48 268.424H1139.66C1138.32 268.424 1137.17 268.04 1136.21 267.272C1135.25 266.312 1134.77 265.16 1134.77 263.816V119.528C1134.77 117.992 1135.25 116.84 1136.21 116.072C1137.17 115.112 1138.32 114.632 1139.66 114.632C1142.73 114.632 1144.27 116.264 1144.27 119.528V258.92H1170.48C1185.65 258.92 1199.18 255.176 1211.09 247.688C1223.18 240.008 1232.01 229.064 1237.58 214.856C1242.77 202.184 1245.36 187.112 1245.36 169.64C1245.36 155.816 1243.25 142.568 1239.02 129.896C1234.99 117.032 1227.69 105.896 1217.13 96.488C1209.26 89.576 1201.01 84.776 1192.37 82.088C1183.92 79.208 1176.62 77.768 1170.48 77.768H1139.37ZM1114.32 268.712C1112.97 268.712 1111.82 268.232 1110.86 267.272C1110.09 266.312 1109.71 265.16 1109.71 263.816V97.64C1109.71 96.296 1110.09 95.144 1110.86 94.184C1111.82 93.224 1112.97 92.744 1114.32 92.744H1164.14C1177.39 92.744 1189.1 96.392 1199.28 103.688C1209.65 110.984 1217.52 120.488 1222.89 132.2C1227.31 142.76 1229.52 154.568 1229.52 167.624C1229.52 175.88 1228.56 183.848 1226.64 191.528C1224.91 199.208 1222.13 206.312 1218.29 212.84C1214.45 219.176 1209.55 224.84 1203.6 229.832C1197.65 234.632 1190.54 238.376 1182.29 241.064C1178.83 241.064 1176.81 240.008 1176.24 237.896C1175.85 236.552 1175.95 235.304 1176.53 234.152C1177.1 233 1178.06 232.232 1179.41 231.848C1182.48 230.888 1186.32 229.256 1190.93 226.952C1195.53 224.456 1199.95 220.808 1204.17 216.008C1208.59 211.016 1212.33 204.68 1215.41 197C1218.48 189.128 1220.01 179.336 1220.01 167.624C1220.01 157.64 1218.48 148.328 1215.41 139.688C1212.53 130.856 1207.34 122.984 1199.85 116.072C1194.86 111.656 1189.2 108.296 1182.86 105.992C1176.72 103.496 1170.48 102.248 1164.14 102.248H1119.21V263.816C1119.21 265.16 1118.73 266.312 1117.77 267.272C1116.81 268.232 1115.66 268.712 1114.32 268.712ZM1165.01 244.232C1162.7 243.656 1161.17 242.792 1160.4 241.64C1159.63 240.296 1159.53 238.856 1160.11 237.32C1160.49 235.592 1161.36 234.632 1162.7 234.44C1164.05 234.056 1165.39 233.864 1166.73 233.864C1168.08 234.44 1169.04 235.4 1169.61 236.744C1170.19 237.896 1170.29 239.144 1169.9 240.488V240.776C1168.94 243.08 1167.31 244.232 1165.01 244.232ZM1291.21 268.712C1287.37 267.56 1285.93 265.448 1286.89 262.376L1357.73 72.008C1358.69 69.896 1360.23 68.84 1362.34 68.84H1366.37C1368.49 68.84 1370.02 69.896 1370.98 72.008L1405.25 176.552C1405.64 177.896 1405.54 179.144 1404.97 180.296C1404.39 181.448 1403.43 182.216 1402.09 182.6C1401.7 182.6 1401.41 182.696 1401.22 182.888C1401.22 182.888 1401.03 182.888 1400.65 182.888C1398.53 182.888 1397 181.736 1396.04 179.432L1364.07 82.088L1295.81 265.832C1294.85 267.752 1293.32 268.712 1291.21 268.712ZM1454.21 268.712C1452.1 268.712 1450.57 267.752 1449.61 265.832L1426.57 203.048H1362.63C1361.09 203.048 1359.85 202.568 1358.89 201.608C1358.12 200.648 1357.73 199.496 1357.73 198.152C1357.73 195.08 1359.37 193.544 1362.63 193.544H1430.02C1431.94 193.544 1433.38 194.408 1434.34 196.136L1458.53 262.376C1459.49 265.448 1458.53 267.464 1455.65 268.424L1454.21 268.712ZM1323.46 253.448C1319.62 252.296 1318.18 250.184 1319.14 247.112L1359.17 129.032C1360.33 126.92 1361.86 125.864 1363.78 125.864C1364.17 125.864 1364.45 125.96 1364.65 126.152C1364.84 126.152 1365.03 126.152 1365.22 126.152C1366.57 126.536 1367.53 127.4 1368.1 128.744C1368.68 129.896 1368.77 131.048 1368.39 132.2L1328.07 250.28C1327.11 252.392 1325.57 253.448 1323.46 253.448ZM1423.4 253.16C1421.09 253.16 1419.65 252.104 1419.08 249.992L1411.88 228.392H1354.57C1353.22 228.392 1352.07 227.912 1351.11 226.952C1350.34 225.992 1349.96 224.84 1349.96 223.496C1349.96 220.424 1351.49 218.888 1354.57 218.888H1415.33C1417.45 218.888 1418.98 219.944 1419.94 222.056L1428.01 247.112C1428.39 248.264 1428.29 249.416 1427.72 250.568C1427.14 251.72 1426.18 252.488 1424.84 252.872L1423.4 253.16ZM1422.53 182.6C1420.42 182.6 1418.89 181.544 1417.93 179.432L1389.13 91.016C1388.17 87.944 1389.13 85.928 1392.01 84.968C1392.39 84.776 1392.87 84.68 1393.45 84.68C1395.75 84.68 1397.29 85.736 1398.05 87.848L1427.14 176.264C1427.53 177.608 1427.43 178.856 1426.85 180.008C1426.28 181.16 1425.32 181.928 1423.97 182.312L1422.53 182.6ZM1318.28 269.288C1316.17 268.712 1314.73 267.848 1313.96 266.696C1313.19 265.352 1313 263.912 1313.38 262.376C1314.34 259.88 1315.97 258.632 1318.28 258.632C1318.66 258.632 1318.95 258.728 1319.14 258.92C1319.33 258.92 1319.62 258.92 1320.01 258.92C1321.35 259.496 1322.31 260.456 1322.89 261.8C1323.46 262.952 1323.56 264.2 1323.17 265.544V265.832C1322.21 268.136 1320.58 269.288 1318.28 269.288ZM1514.58 262.088C1514.58 260.744 1515.06 259.688 1516.02 258.92C1516.98 257.96 1518.13 257.48 1519.47 257.48H1590.32C1593.39 257.48 1594.93 259.016 1594.93 262.088C1594.93 263.432 1594.45 264.584 1593.49 265.544C1592.72 266.504 1591.66 266.984 1590.32 266.984H1519.47C1518.13 266.984 1516.98 266.504 1516.02 265.544C1515.06 264.584 1514.58 263.432 1514.58 262.088ZM1492.98 241.928C1489.9 241.928 1488.37 240.392 1488.37 237.32V70.568C1488.37 67.496 1489.9 65.96 1492.98 65.96C1496.24 65.96 1497.87 67.496 1497.87 70.568V232.424H1574.48C1576.02 232.424 1577.17 232.904 1577.94 233.864C1578.9 234.824 1579.38 235.976 1579.38 237.32C1579.38 240.392 1577.74 241.928 1574.48 241.928H1492.98ZM1514.29 96.488C1514.29 93.416 1515.82 91.88 1518.9 91.88C1520.24 91.88 1521.39 92.36 1522.35 93.32C1523.31 94.088 1523.79 95.144 1523.79 96.488V214.28C1523.79 215.624 1523.31 216.776 1522.35 217.736C1521.39 218.504 1520.24 218.888 1518.9 218.888C1515.82 218.888 1514.29 217.352 1514.29 214.28V96.488ZM1590.61 242.504C1588.5 241.928 1587.06 240.968 1586.29 239.624C1585.52 238.28 1585.33 236.936 1585.71 235.592V235.304C1586.67 233 1588.3 231.848 1590.61 231.848C1590.99 231.848 1591.28 231.944 1591.47 232.136C1591.66 232.136 1591.95 232.136 1592.34 232.136C1593.87 232.52 1594.93 233.384 1595.5 234.728C1596.08 236.072 1596.08 237.416 1595.5 238.76V239.048C1594.93 241.352 1593.3 242.504 1590.61 242.504Z" fill="#A4753D"/>
<path d="M588.338 344.544H577.598L575.351 351H570.343L580.816 323.273H585.139L595.632 351H590.604L588.338 344.544ZM578.95 340.66H586.986L582.968 329.158L578.95 340.66ZM601.726 330.396L601.859 332.776C603.382 330.935 605.382 330.015 607.857 330.015C612.148 330.015 614.332 332.471 614.408 337.384V351H609.781V337.651C609.781 336.343 609.495 335.378 608.924 334.756C608.365 334.122 607.445 333.804 606.163 333.804C604.296 333.804 602.906 334.648 601.992 336.337V351H597.365V330.396H601.726ZM641.164 351C640.96 350.606 640.783 349.965 640.63 349.077C639.158 350.613 637.355 351.381 635.222 351.381C633.153 351.381 631.464 350.791 630.157 349.61C628.849 348.429 628.195 346.969 628.195 345.23C628.195 343.034 629.008 341.352 630.633 340.184C632.271 339.003 634.606 338.413 637.641 338.413H640.478V337.061C640.478 335.994 640.18 335.144 639.583 334.509C638.986 333.861 638.079 333.538 636.86 333.538C635.806 333.538 634.943 333.804 634.27 334.337C633.597 334.858 633.261 335.524 633.261 336.337H628.633C628.633 335.207 629.008 334.153 629.757 333.176C630.506 332.186 631.521 331.411 632.804 330.853C634.099 330.294 635.54 330.015 637.126 330.015C639.539 330.015 641.462 330.624 642.896 331.843C644.331 333.049 645.067 334.75 645.105 336.946V346.239C645.105 348.093 645.366 349.572 645.886 350.676V351H641.164ZM636.079 347.667C636.993 347.667 637.85 347.445 638.65 347.001C639.462 346.557 640.072 345.96 640.478 345.211V341.326H637.983C636.27 341.326 634.981 341.625 634.118 342.221C633.254 342.818 632.823 343.662 632.823 344.754C632.823 345.643 633.115 346.354 633.699 346.887C634.295 347.407 635.089 347.667 636.079 347.667ZM658.417 347.687C659.572 347.687 660.53 347.35 661.292 346.677C662.054 346.004 662.46 345.173 662.511 344.183H666.872C666.821 345.465 666.421 346.665 665.672 347.782C664.923 348.886 663.907 349.762 662.625 350.41C661.343 351.057 659.959 351.381 658.474 351.381C655.592 351.381 653.307 350.448 651.618 348.582C649.93 346.715 649.085 344.138 649.085 340.85V340.374C649.085 337.238 649.923 334.731 651.599 332.852C653.275 330.96 655.56 330.015 658.455 330.015C660.905 330.015 662.898 330.732 664.434 332.167C665.983 333.588 666.795 335.461 666.872 337.784H662.511C662.46 336.604 662.054 335.632 661.292 334.871C660.543 334.109 659.584 333.728 658.417 333.728C656.918 333.728 655.763 334.274 654.951 335.366C654.138 336.445 653.726 338.089 653.713 340.298V341.041C653.713 343.275 654.113 344.944 654.913 346.049C655.725 347.141 656.893 347.687 658.417 347.687ZM678.831 347.687C679.986 347.687 680.944 347.35 681.706 346.677C682.468 346.004 682.874 345.173 682.925 344.183H687.286C687.235 345.465 686.835 346.665 686.086 347.782C685.337 348.886 684.321 349.762 683.039 350.41C681.757 351.057 680.373 351.381 678.888 351.381C676.006 351.381 673.721 350.448 672.032 348.582C670.344 346.715 669.5 344.138 669.5 340.85V340.374C669.5 337.238 670.337 334.731 672.013 332.852C673.689 330.96 675.974 330.015 678.869 330.015C681.319 330.015 683.312 330.732 684.848 332.167C686.397 333.588 687.209 335.461 687.286 337.784H682.925C682.874 336.604 682.468 335.632 681.706 334.871C680.957 334.109 679.999 333.728 678.831 333.728C677.333 333.728 676.177 334.274 675.365 335.366C674.552 336.445 674.14 338.089 674.127 340.298V341.041C674.127 343.275 674.527 344.944 675.327 346.049C676.139 347.141 677.307 347.687 678.831 347.687ZM699.854 351.381C696.921 351.381 694.541 350.46 692.713 348.62C690.897 346.766 689.99 344.303 689.99 341.231V340.66C689.99 338.603 690.383 336.769 691.17 335.156C691.97 333.531 693.087 332.268 694.522 331.367C695.957 330.465 697.556 330.015 699.321 330.015C702.126 330.015 704.291 330.91 705.814 332.7C707.351 334.49 708.119 337.022 708.119 340.298V342.164H694.655C694.795 343.865 695.36 345.211 696.35 346.201C697.353 347.191 698.61 347.687 700.121 347.687C702.241 347.687 703.967 346.83 705.3 345.116L707.795 347.496C706.97 348.728 705.865 349.686 704.481 350.372C703.11 351.044 701.568 351.381 699.854 351.381ZM699.302 333.728C698.032 333.728 697.004 334.172 696.217 335.061C695.442 335.95 694.947 337.188 694.731 338.774H703.548V338.432C703.447 336.883 703.034 335.715 702.311 334.928C701.587 334.128 700.584 333.728 699.302 333.728ZM723.277 345.401C723.277 344.576 722.934 343.948 722.249 343.516C721.576 343.084 720.452 342.704 718.878 342.374C717.304 342.043 715.99 341.625 714.936 341.117C712.625 340 711.47 338.381 711.47 336.261C711.47 334.483 712.219 332.998 713.717 331.805C715.215 330.611 717.12 330.015 719.43 330.015C721.893 330.015 723.88 330.624 725.391 331.843C726.914 333.062 727.676 334.642 727.676 336.584H723.048C723.048 335.696 722.718 334.959 722.058 334.375C721.398 333.779 720.522 333.48 719.43 333.48C718.415 333.48 717.583 333.715 716.936 334.185C716.301 334.655 715.983 335.283 715.983 336.07C715.983 336.781 716.282 337.333 716.878 337.727C717.475 338.121 718.681 338.521 720.497 338.927C722.312 339.32 723.734 339.796 724.762 340.355C725.803 340.901 726.571 341.561 727.066 342.335C727.574 343.11 727.828 344.049 727.828 345.154C727.828 347.007 727.06 348.512 725.524 349.667C723.988 350.81 721.976 351.381 719.487 351.381C717.799 351.381 716.294 351.076 714.974 350.467C713.654 349.857 712.625 349.02 711.889 347.953C711.153 346.887 710.785 345.738 710.785 344.506H715.279C715.342 345.598 715.755 346.442 716.517 347.039C717.278 347.623 718.288 347.915 719.544 347.915C720.763 347.915 721.69 347.687 722.325 347.229C722.959 346.76 723.277 346.15 723.277 345.401ZM743.424 345.401C743.424 344.576 743.082 343.948 742.396 343.516C741.723 343.084 740.6 342.704 739.025 342.374C737.451 342.043 736.137 341.625 735.083 341.117C732.773 340 731.618 338.381 731.618 336.261C731.618 334.483 732.367 332.998 733.865 331.805C735.363 330.611 737.267 330.015 739.578 330.015C742.041 330.015 744.027 330.624 745.538 331.843C747.062 333.062 747.823 334.642 747.823 336.584H743.196C743.196 335.696 742.866 334.959 742.206 334.375C741.545 333.779 740.669 333.48 739.578 333.48C738.562 333.48 737.73 333.715 737.083 334.185C736.448 334.655 736.131 335.283 736.131 336.07C736.131 336.781 736.429 337.333 737.026 337.727C737.623 338.121 738.829 338.521 740.644 338.927C742.459 339.32 743.881 339.796 744.91 340.355C745.951 340.901 746.719 341.561 747.214 342.335C747.722 343.11 747.976 344.049 747.976 345.154C747.976 347.007 747.208 348.512 745.671 349.667C744.135 350.81 742.123 351.381 739.635 351.381C737.946 351.381 736.442 351.076 735.122 350.467C733.801 349.857 732.773 349.02 732.037 347.953C731.3 346.887 730.932 345.738 730.932 344.506H735.426C735.49 345.598 735.902 346.442 736.664 347.039C737.426 347.623 738.435 347.915 739.692 347.915C740.911 347.915 741.837 347.687 742.472 347.229C743.107 346.76 743.424 346.15 743.424 345.401ZM756.945 351H752.317V330.396H756.945V351ZM752.032 325.044C752.032 324.333 752.254 323.743 752.698 323.273C753.155 322.804 753.803 322.569 754.641 322.569C755.479 322.569 756.126 322.804 756.583 323.273C757.04 323.743 757.269 324.333 757.269 325.044C757.269 325.743 757.04 326.327 756.583 326.796C756.126 327.253 755.479 327.482 754.641 327.482C753.803 327.482 753.155 327.253 752.698 326.796C752.254 326.327 752.032 325.743 752.032 325.044ZM780.082 340.907C780.082 344.106 779.365 346.652 777.93 348.543C776.508 350.435 774.547 351.381 772.046 351.381C769.634 351.381 767.755 350.511 766.409 348.772L766.181 351H761.991V321.75H766.619V332.376C767.952 330.802 769.748 330.015 772.008 330.015C774.521 330.015 776.496 330.948 777.93 332.814C779.365 334.68 780.082 337.289 780.082 340.641V340.907ZM775.455 340.507C775.455 338.273 775.061 336.597 774.274 335.48C773.487 334.363 772.344 333.804 770.846 333.804C768.84 333.804 767.431 334.68 766.619 336.432V344.925C767.444 346.715 768.866 347.61 770.884 347.61C772.332 347.61 773.449 347.071 774.236 345.992C775.023 344.913 775.429 343.281 775.455 341.098V340.507ZM788.899 351H784.271V321.75H788.899V351ZM803.029 351.381C800.096 351.381 797.716 350.46 795.888 348.62C794.072 346.766 793.165 344.303 793.165 341.231V340.66C793.165 338.603 793.558 336.769 794.345 335.156C795.145 333.531 796.262 332.268 797.697 331.367C799.131 330.465 800.731 330.015 802.496 330.015C805.301 330.015 807.466 330.91 808.989 332.7C810.525 334.49 811.293 337.022 811.293 340.298V342.164H797.83C797.97 343.865 798.535 345.211 799.525 346.201C800.528 347.191 801.785 347.687 803.295 347.687C805.416 347.687 807.142 346.83 808.475 345.116L810.97 347.496C810.145 348.728 809.04 349.686 807.656 350.372C806.285 351.044 804.743 351.381 803.029 351.381ZM802.477 333.728C801.207 333.728 800.179 334.172 799.392 335.061C798.617 335.95 798.122 337.188 797.906 338.774H806.723V338.432C806.622 336.883 806.209 335.715 805.485 334.928C804.762 334.128 803.759 333.728 802.477 333.728ZM836.925 351C836.722 350.606 836.544 349.965 836.392 349.077C834.919 350.613 833.117 351.381 830.984 351.381C828.915 351.381 827.226 350.791 825.918 349.61C824.611 348.429 823.957 346.969 823.957 345.23C823.957 343.034 824.77 341.352 826.395 340.184C828.032 339.003 830.368 338.413 833.402 338.413H836.24V337.061C836.24 335.994 835.941 335.144 835.345 334.509C834.748 333.861 833.84 333.538 832.622 333.538C831.568 333.538 830.705 333.804 830.032 334.337C829.359 334.858 829.022 335.524 829.022 336.337H824.395C824.395 335.207 824.77 334.153 825.519 333.176C826.268 332.186 827.283 331.411 828.565 330.853C829.86 330.294 831.301 330.015 832.888 330.015C835.3 330.015 837.224 330.624 838.658 331.843C840.093 333.049 840.829 334.75 840.867 336.946V346.239C840.867 348.093 841.127 349.572 841.648 350.676V351H836.925ZM831.841 347.667C832.755 347.667 833.612 347.445 834.412 347.001C835.224 346.557 835.833 345.96 836.24 345.211V341.326H833.745C832.031 341.326 830.743 341.625 829.879 342.221C829.016 342.818 828.584 343.662 828.584 344.754C828.584 345.643 828.876 346.354 829.46 346.887C830.057 347.407 830.851 347.667 831.841 347.667ZM850.008 330.396L850.141 332.776C851.665 330.935 853.664 330.015 856.14 330.015C860.431 330.015 862.614 332.471 862.69 337.384V351H858.063V337.651C858.063 336.343 857.777 335.378 857.206 334.756C856.647 334.122 855.727 333.804 854.445 333.804C852.579 333.804 851.188 334.648 850.274 336.337V351H845.647V330.396H850.008ZM866.556 340.545C866.556 337.372 867.292 334.826 868.765 332.909C870.238 330.979 872.212 330.015 874.688 330.015C876.871 330.015 878.636 330.776 879.981 332.3V321.75H884.609V351H880.419L880.191 348.867C878.807 350.543 876.96 351.381 874.649 351.381C872.237 351.381 870.282 350.41 868.784 348.467C867.299 346.525 866.556 343.884 866.556 340.545ZM871.184 340.945C871.184 343.04 871.583 344.678 872.383 345.858C873.196 347.026 874.345 347.61 875.83 347.61C877.722 347.61 879.105 346.766 879.981 345.078V336.28C879.131 334.629 877.76 333.804 875.868 333.804C874.37 333.804 873.215 334.401 872.402 335.594C871.59 336.775 871.184 338.559 871.184 340.945ZM907.613 347.687C908.768 347.687 909.727 347.35 910.488 346.677C911.25 346.004 911.656 345.173 911.707 344.183H916.068C916.017 345.465 915.617 346.665 914.868 347.782C914.119 348.886 913.104 349.762 911.821 350.41C910.539 351.057 909.155 351.381 907.67 351.381C904.788 351.381 902.503 350.448 900.814 348.582C899.126 346.715 898.282 344.138 898.282 340.85V340.374C898.282 337.238 899.12 334.731 900.795 332.852C902.471 330.96 904.756 330.015 907.651 330.015C910.101 330.015 912.094 330.732 913.63 332.167C915.179 333.588 915.992 335.461 916.068 337.784H911.707C911.656 336.604 911.25 335.632 910.488 334.871C909.739 334.109 908.781 333.728 907.613 333.728C906.115 333.728 904.959 334.274 904.147 335.366C903.334 336.445 902.922 338.089 902.909 340.298V341.041C902.909 343.275 903.309 344.944 904.109 346.049C904.921 347.141 906.089 347.687 907.613 347.687ZM932.045 348.981C930.687 350.581 928.757 351.381 926.256 351.381C924.021 351.381 922.327 350.727 921.171 349.419C920.029 348.112 919.458 346.22 919.458 343.745V330.396H924.085V343.688C924.085 346.303 925.17 347.61 927.341 347.61C929.588 347.61 931.105 346.804 931.893 345.192V330.396H936.52V351H932.159L932.045 348.981ZM952.783 345.401C952.783 344.576 952.44 343.948 951.754 343.516C951.082 343.084 949.958 342.704 948.384 342.374C946.81 342.043 945.496 341.625 944.442 341.117C942.131 340 940.976 338.381 940.976 336.261C940.976 334.483 941.725 332.998 943.223 331.805C944.721 330.611 946.625 330.015 948.936 330.015C951.399 330.015 953.386 330.624 954.896 331.843C956.42 333.062 957.182 334.642 957.182 336.584H952.554C952.554 335.696 952.224 334.959 951.564 334.375C950.904 333.779 950.028 333.48 948.936 333.48C947.92 333.48 947.089 333.715 946.441 334.185C945.807 334.655 945.489 335.283 945.489 336.07C945.489 336.781 945.788 337.333 946.384 337.727C946.981 338.121 948.187 338.521 950.002 338.927C951.818 339.32 953.24 339.796 954.268 340.355C955.309 340.901 956.077 341.561 956.572 342.335C957.08 343.11 957.334 344.049 957.334 345.154C957.334 347.007 956.566 348.512 955.03 349.667C953.494 350.81 951.481 351.381 948.993 351.381C947.305 351.381 945.8 351.076 944.48 350.467C943.16 349.857 942.131 349.02 941.395 347.953C940.659 346.887 940.291 345.738 940.291 344.506H944.785C944.848 345.598 945.261 346.442 946.022 347.039C946.784 347.623 947.793 347.915 949.05 347.915C950.269 347.915 951.196 347.687 951.831 347.229C952.465 346.76 952.783 346.15 952.783 345.401ZM967.179 325.387V330.396H970.816V333.823H967.179V345.325C967.179 346.112 967.332 346.684 967.636 347.039C967.954 347.382 968.512 347.553 969.312 347.553C969.845 347.553 970.385 347.49 970.931 347.363V350.943C969.877 351.235 968.861 351.381 967.884 351.381C964.329 351.381 962.552 349.419 962.552 345.497V333.823H959.162V330.396H962.552V325.387H967.179ZM972.93 340.507C972.93 338.489 973.33 336.673 974.13 335.061C974.93 333.436 976.053 332.192 977.5 331.329C978.948 330.453 980.611 330.015 982.49 330.015C985.27 330.015 987.523 330.91 989.25 332.7C990.989 334.49 991.929 336.864 992.068 339.822L992.087 340.907C992.087 342.938 991.694 344.754 990.907 346.354C990.132 347.953 989.015 349.191 987.555 350.067C986.108 350.943 984.432 351.381 982.528 351.381C979.621 351.381 977.291 350.416 975.539 348.486C973.8 346.544 972.93 343.96 972.93 340.736V340.507ZM977.558 340.907C977.558 343.027 977.996 344.69 978.872 345.896C979.748 347.09 980.966 347.687 982.528 347.687C984.089 347.687 985.302 347.077 986.165 345.858C987.041 344.64 987.479 342.856 987.479 340.507C987.479 338.425 987.028 336.775 986.127 335.556C985.238 334.337 984.026 333.728 982.49 333.728C980.979 333.728 979.779 334.331 978.891 335.537C978.002 336.73 977.558 338.521 977.558 340.907ZM1000.35 330.396L1000.49 332.547C1001.93 330.859 1003.91 330.015 1006.43 330.015C1009.18 330.015 1011.07 331.068 1012.08 333.176C1013.58 331.068 1015.69 330.015 1018.4 330.015C1020.68 330.015 1022.37 330.643 1023.47 331.9C1024.59 333.157 1025.16 335.01 1025.18 337.46V351H1020.56V337.594C1020.56 336.286 1020.27 335.328 1019.7 334.718C1019.13 334.109 1018.18 333.804 1016.86 333.804C1015.81 333.804 1014.95 334.09 1014.27 334.661C1013.61 335.22 1013.15 335.956 1012.88 336.87L1012.9 351H1008.27V337.441C1008.21 335.017 1006.97 333.804 1004.56 333.804C1002.71 333.804 1001.39 334.56 1000.62 336.07V351H995.991V330.396H1000.35ZM1034.86 351H1030.23V330.396H1034.86V351ZM1029.94 325.044C1029.94 324.333 1030.17 323.743 1030.61 323.273C1031.07 322.804 1031.72 322.569 1032.55 322.569C1033.39 322.569 1034.04 322.804 1034.5 323.273C1034.95 323.743 1035.18 324.333 1035.18 325.044C1035.18 325.743 1034.95 326.327 1034.5 326.796C1034.04 327.253 1033.39 327.482 1032.55 327.482C1031.72 327.482 1031.07 327.253 1030.61 326.796C1030.17 326.327 1029.94 325.743 1029.94 325.044ZM1051.46 345.401C1051.46 344.576 1051.12 343.948 1050.44 343.516C1049.76 343.084 1048.64 342.704 1047.06 342.374C1045.49 342.043 1044.18 341.625 1043.12 341.117C1040.81 340 1039.66 338.381 1039.66 336.261C1039.66 334.483 1040.41 332.998 1041.9 331.805C1043.4 330.611 1045.31 330.015 1047.62 330.015C1050.08 330.015 1052.07 330.624 1053.58 331.843C1055.1 333.062 1055.86 334.642 1055.86 336.584H1051.23C1051.23 335.696 1050.9 334.959 1050.24 334.375C1049.58 333.779 1048.71 333.48 1047.62 333.48C1046.6 333.48 1045.77 333.715 1045.12 334.185C1044.49 334.655 1044.17 335.283 1044.17 336.07C1044.17 336.781 1044.47 337.333 1045.06 337.727C1045.66 338.121 1046.87 338.521 1048.68 338.927C1050.5 339.32 1051.92 339.796 1052.95 340.355C1053.99 340.901 1054.76 341.561 1055.25 342.335C1055.76 343.11 1056.01 344.049 1056.01 345.154C1056.01 347.007 1055.25 348.512 1053.71 349.667C1052.17 350.81 1050.16 351.381 1047.67 351.381C1045.99 351.381 1044.48 351.076 1043.16 350.467C1041.84 349.857 1040.81 349.02 1040.08 347.953C1039.34 346.887 1038.97 345.738 1038.97 344.506H1043.47C1043.53 345.598 1043.94 346.442 1044.7 347.039C1045.46 347.623 1046.47 347.915 1047.73 347.915C1048.95 347.915 1049.88 347.687 1050.51 347.229C1051.15 346.76 1051.46 346.15 1051.46 345.401ZM1072.37 351C1072.17 350.606 1071.99 349.965 1071.84 349.077C1070.37 350.613 1068.56 351.381 1066.43 351.381C1064.36 351.381 1062.67 350.791 1061.37 349.61C1060.06 348.429 1059.4 346.969 1059.4 345.23C1059.4 343.034 1060.22 341.352 1061.84 340.184C1063.48 339.003 1065.82 338.413 1068.85 338.413H1071.69V337.061C1071.69 335.994 1071.39 335.144 1070.79 334.509C1070.2 333.861 1069.29 333.538 1068.07 333.538C1067.02 333.538 1066.15 333.804 1065.48 334.337C1064.81 334.858 1064.47 335.524 1064.47 336.337H1059.84C1059.84 335.207 1060.22 334.153 1060.97 333.176C1061.71 332.186 1062.73 331.411 1064.01 330.853C1065.31 330.294 1066.75 330.015 1068.34 330.015C1070.75 330.015 1072.67 330.624 1074.11 331.843C1075.54 333.049 1076.28 334.75 1076.31 336.946V346.239C1076.31 348.093 1076.57 349.572 1077.1 350.676V351H1072.37ZM1067.29 347.667C1068.2 347.667 1069.06 347.445 1069.86 347.001C1070.67 346.557 1071.28 345.96 1071.69 345.211V341.326H1069.19C1067.48 341.326 1066.19 341.625 1065.33 342.221C1064.46 342.818 1064.03 343.662 1064.03 344.754C1064.03 345.643 1064.32 346.354 1064.91 346.887C1065.5 347.407 1066.3 347.667 1067.29 347.667ZM1099.24 340.907C1099.24 344.106 1098.52 346.652 1097.09 348.543C1095.67 350.435 1093.71 351.381 1091.21 351.381C1088.79 351.381 1086.92 350.511 1085.57 348.772L1085.34 351H1081.15V321.75H1085.78V332.376C1087.11 330.802 1088.91 330.015 1091.17 330.015C1093.68 330.015 1095.66 330.948 1097.09 332.814C1098.52 334.68 1099.24 337.289 1099.24 340.641V340.907ZM1094.61 340.507C1094.61 338.273 1094.22 336.597 1093.43 335.48C1092.65 334.363 1091.5 333.804 1090.01 333.804C1088 333.804 1086.59 334.68 1085.78 336.432V344.925C1086.6 346.715 1088.03 347.61 1090.04 347.61C1091.49 347.61 1092.61 347.071 1093.4 345.992C1094.18 344.913 1094.59 343.281 1094.61 341.098V340.507ZM1108.06 351H1103.43V321.75H1108.06V351ZM1122.19 351.381C1119.26 351.381 1116.88 350.46 1115.05 348.62C1113.23 346.766 1112.32 344.303 1112.32 341.231V340.66C1112.32 338.603 1112.72 336.769 1113.51 335.156C1114.31 333.531 1115.42 332.268 1116.86 331.367C1118.29 330.465 1119.89 330.015 1121.66 330.015C1124.46 330.015 1126.63 330.91 1128.15 332.7C1129.69 334.49 1130.45 337.022 1130.45 340.298V342.164H1116.99C1117.13 343.865 1117.69 345.211 1118.69 346.201C1119.69 347.191 1120.94 347.687 1122.46 347.687C1124.58 347.687 1126.3 346.83 1127.64 345.116L1130.13 347.496C1129.3 348.728 1128.2 349.686 1126.82 350.372C1125.45 351.044 1123.9 351.381 1122.19 351.381ZM1121.64 333.728C1120.37 333.728 1119.34 334.172 1118.55 335.061C1117.78 335.95 1117.28 337.188 1117.07 338.774H1125.88V338.432C1125.78 336.883 1125.37 335.715 1124.65 334.928C1123.92 334.128 1122.92 333.728 1121.64 333.728ZM1163.11 327.158H1154.47V351H1149.69V327.158H1141.12V323.273H1163.11V327.158ZM1183.51 344.621L1186.78 330.396H1191.3L1185.68 351H1181.87L1177.45 336.851L1173.11 351H1169.3L1163.66 330.396H1168.18L1171.51 344.468L1175.74 330.396H1179.22L1183.51 344.621ZM1199.31 351H1194.69V330.396H1199.31V351ZM1194.4 325.044C1194.4 324.333 1194.62 323.743 1195.07 323.273C1195.52 322.804 1196.17 322.569 1197.01 322.569C1197.85 322.569 1198.49 322.804 1198.95 323.273C1199.41 323.743 1199.64 324.333 1199.64 325.044C1199.64 325.743 1199.41 326.327 1198.95 326.796C1198.49 327.253 1197.85 327.482 1197.01 327.482C1196.17 327.482 1195.52 327.253 1195.07 326.796C1194.62 326.327 1194.4 325.743 1194.4 325.044ZM1210.17 325.387V330.396H1213.8V333.823H1210.17V345.325C1210.17 346.112 1210.32 346.684 1210.62 347.039C1210.94 347.382 1211.5 347.553 1212.3 347.553C1212.83 347.553 1213.37 347.49 1213.92 347.363V350.943C1212.87 351.235 1211.85 351.381 1210.87 351.381C1207.32 351.381 1205.54 349.419 1205.54 345.497V333.823H1202.15V330.396H1205.54V325.387H1210.17ZM1223.15 325.387V330.396H1226.79V333.823H1223.15V345.325C1223.15 346.112 1223.31 346.684 1223.61 347.039C1223.93 347.382 1224.49 347.553 1225.29 347.553C1225.82 347.553 1226.36 347.49 1226.91 347.363V350.943C1225.85 351.235 1224.84 351.381 1223.86 351.381C1220.3 351.381 1218.53 349.419 1218.53 345.497V333.823H1215.14V330.396H1218.53V325.387H1223.15ZM1239.42 351.381C1236.48 351.381 1234.1 350.46 1232.28 348.62C1230.46 346.766 1229.55 344.303 1229.55 341.231V340.66C1229.55 338.603 1229.95 336.769 1230.73 335.156C1231.53 333.531 1232.65 332.268 1234.09 331.367C1235.52 330.465 1237.12 330.015 1238.88 330.015C1241.69 330.015 1243.85 330.91 1245.38 332.7C1246.91 334.49 1247.68 337.022 1247.68 340.298V342.164H1234.22C1234.36 343.865 1234.92 345.211 1235.91 346.201C1236.92 347.191 1238.17 347.687 1239.68 347.687C1241.8 347.687 1243.53 346.83 1244.86 345.116L1247.36 347.496C1246.53 348.728 1245.43 349.686 1244.04 350.372C1242.67 351.044 1241.13 351.381 1239.42 351.381ZM1238.87 333.728C1237.6 333.728 1236.57 334.172 1235.78 335.061C1235.01 335.95 1234.51 337.188 1234.29 338.774H1243.11V338.432C1243.01 336.883 1242.6 335.715 1241.87 334.928C1241.15 334.128 1240.15 333.728 1238.87 333.728ZM1262.08 334.623C1261.47 334.521 1260.84 334.471 1260.19 334.471C1258.07 334.471 1256.65 335.283 1255.91 336.908V351H1251.28V330.396H1255.7L1255.81 332.7C1256.93 330.91 1258.48 330.015 1260.46 330.015C1261.12 330.015 1261.67 330.104 1262.1 330.281L1262.08 334.623ZM1283.18 347.687C1284.33 347.687 1285.29 347.35 1286.05 346.677C1286.82 346.004 1287.22 345.173 1287.27 344.183H1291.63C1291.58 345.465 1291.18 346.665 1290.43 347.782C1289.68 348.886 1288.67 349.762 1287.39 350.41C1286.1 351.057 1284.72 351.381 1283.24 351.381C1280.35 351.381 1278.07 350.448 1276.38 348.582C1274.69 346.715 1273.85 344.138 1273.85 340.85V340.374C1273.85 337.238 1274.69 334.731 1276.36 332.852C1278.04 330.96 1280.32 330.015 1283.22 330.015C1285.67 330.015 1287.66 330.732 1289.2 332.167C1290.74 333.588 1291.56 335.461 1291.63 337.784H1287.27C1287.22 336.604 1286.82 335.632 1286.05 334.871C1285.3 334.109 1284.35 333.728 1283.18 333.728C1281.68 333.728 1280.52 334.274 1279.71 335.366C1278.9 336.445 1278.49 338.089 1278.47 340.298V341.041C1278.47 343.275 1278.87 344.944 1279.67 346.049C1280.49 347.141 1281.65 347.687 1283.18 347.687ZM1300.05 351H1295.42V321.75H1300.05V351ZM1310.03 351H1305.4V330.396H1310.03V351ZM1305.12 325.044C1305.12 324.333 1305.34 323.743 1305.78 323.273C1306.24 322.804 1306.89 322.569 1307.72 322.569C1308.56 322.569 1309.21 322.804 1309.67 323.273C1310.12 323.743 1310.35 324.333 1310.35 325.044C1310.35 325.743 1310.12 326.327 1309.67 326.796C1309.21 327.253 1308.56 327.482 1307.72 327.482C1306.89 327.482 1306.24 327.253 1305.78 326.796C1305.34 326.327 1305.12 325.743 1305.12 325.044ZM1324.16 351.381C1321.23 351.381 1318.85 350.46 1317.02 348.62C1315.2 346.766 1314.29 344.303 1314.29 341.231V340.66C1314.29 338.603 1314.69 336.769 1315.48 335.156C1316.27 333.531 1317.39 332.268 1318.83 331.367C1320.26 330.465 1321.86 330.015 1323.63 330.015C1326.43 330.015 1328.6 330.91 1330.12 332.7C1331.66 334.49 1332.42 337.022 1332.42 340.298V342.164H1318.96C1319.1 343.865 1319.66 345.211 1320.65 346.201C1321.66 347.191 1322.91 347.687 1324.43 347.687C1326.55 347.687 1328.27 346.83 1329.6 345.116L1332.1 347.496C1331.27 348.728 1330.17 349.686 1328.79 350.372C1327.42 351.044 1325.87 351.381 1324.16 351.381ZM1323.61 333.728C1322.34 333.728 1321.31 334.172 1320.52 335.061C1319.75 335.95 1319.25 337.188 1319.04 338.774H1327.85V338.432C1327.75 336.883 1327.34 335.715 1326.62 334.928C1325.89 334.128 1324.89 333.728 1323.61 333.728ZM1340.33 330.396L1340.46 332.776C1341.98 330.935 1343.98 330.015 1346.46 330.015C1350.75 330.015 1352.93 332.471 1353.01 337.384V351H1348.38V337.651C1348.38 336.343 1348.1 335.378 1347.52 334.756C1346.97 334.122 1346.05 333.804 1344.76 333.804C1342.9 333.804 1341.51 334.648 1340.59 336.337V351H1335.97V330.396H1340.33ZM1363.54 325.387V330.396H1367.18V333.823H1363.54V345.325C1363.54 346.112 1363.69 346.684 1364 347.039C1364.31 347.382 1364.87 347.553 1365.67 347.553C1366.21 347.553 1366.75 347.49 1367.29 347.363V350.943C1366.24 351.235 1365.22 351.381 1364.24 351.381C1360.69 351.381 1358.91 349.419 1358.91 345.497V333.823H1355.52V330.396H1358.91V325.387H1363.54Z" fill="#616161"/>
</svg>
